<?xml version="1.0" encoding="UTF-8"?>
<svg xmlns="http://www.w3.org/2000/svg" xmlns:xlink="http://www.w3.org/1999/xlink" width="360px" height="360px" viewBox="0 0 360 360" version="1.2">
<g id="surface67934">
<path style=" stroke:none;fill-rule:evenodd;fill:rgb(86.274511%,54.11765%,86.666667%);fill-opacity:1;" d="M 100 100 C 100 100 100 60 180 60 Z M 100 100 "/>
<path style="fill:none;stroke-width:5;stroke-linecap:round;stroke-linejoin:round;stroke:rgb(86.274511%,54.11765%,86.666667%);stroke-opacity:1;stroke-miterlimit:10;" d="M 100 100 C 100 100 100 60 180 60 "/>
<path style=" stroke:none;fill-rule:evenodd;fill:rgb(86.274511%,54.11765%,86.666667%);fill-opacity:1;" d="M 180 60 C 180 60 180 100 260 100 Z M 180 60 "/>
<path style="fill:none;stroke-width:5;stroke-linecap:round;stroke-linejoin:round;stroke:rgb(86.274511%,54.11765%,86.666667%);stroke-opacity:1;stroke-miterlimit:10;" d="M 180 60 C 180 60 180 100 260 100 "/>
<path style=" stroke:none;fill-rule:evenodd;fill:rgb(86.274511%,54.11765%,86.666667%);fill-opacity:1;" d="M 80 100 C 80 100 80 180 120 180 Z M 80 100 "/>
<path style="fill:none;stroke-width:5;stroke-linecap:round;stroke-linejoin:round;stroke:rgb(86.274511%,54.11765%,86.666667%);stroke-opacity:1;stroke-miterlimit:10;" d="M 80 100 C 80 100 80 180 120 180 "/>
<path style=" stroke:none;fill-rule:evenodd;fill:rgb(86.274511%,54.11765%,86.666667%);fill-opacity:1;" d="M 240 180 C 240 180 240 100 280 100 Z M 240 180 "/>
<path style="fill:none;stroke-width:5;stroke-linecap:round;stroke-linejoin:round;stroke:rgb(86.274511%,54.11765%,86.666667%);stroke-opacity:1;stroke-miterlimit:10;" d="M 240 180 C 240 180 240 100 280 100 "/>
<path style=" stroke:none;fill-rule:evenodd;fill:rgb(86.274511%,54.11765%,86.666667%);fill-opacity:1;" d="M 100 180 C 100 180 100 220 180 220 Z M 100 180 "/>
<path style="fill:none;stroke-width:5;stroke-linecap:round;stroke-linejoin:round;stroke:rgb(86.274511%,54.11765%,86.666667%);stroke-opacity:1;stroke-miterlimit:10;" d="M 100 180 C 100 180 100 220 180 220 "/>
<path style=" stroke:none;fill-rule:evenodd;fill:rgb(86.274511%,54.11765%,86.666667%);fill-opacity:1;" d="M 180 220 C 180 220 260 220 260 180 Z M 180 220 "/>
<path style="fill:none;stroke-width:5;stroke-linecap:round;stroke-linejoin:round;stroke:rgb(86.274511%,54.11765%,86.666667%);stroke-opacity:1;stroke-miterlimit:10;" d="M 180 220 C 180 220 260 220 260 180 "/>
<path style=" stroke:none;fill-rule:evenodd;fill:rgb(86.274511%,54.11765%,86.666667%);fill-opacity:1;" d="M 160 120 C 160 120 200 120 200 140 C 200 140 180 140 180 160 C 180 160 160 160 160 120 Z M 160 120 "/>
<path style="fill:none;stroke-width:5;stroke-linecap:round;stroke-linejoin:round;stroke:rgb(86.274511%,54.11765%,86.666667%);stroke-opacity:1;stroke-miterlimit:10;" d="M 160 120 C 160 120 200 120 200 140 C 200 140 180 140 180 160 C 180 160 160 160 160 120 "/>
<path style=" stroke:none;fill-rule:evenodd;fill:rgb(86.274511%,54.11765%,86.666667%);fill-opacity:1;" d="M 140 140 C 140 140 140 140 140 180 C 140 180 180 180 180 200 Z M 140 140 "/>
<path style="fill:none;stroke-width:5;stroke-linecap:round;stroke-linejoin:round;stroke:rgb(86.274511%,54.11765%,86.666667%);stroke-opacity:1;stroke-miterlimit:10;" d="M 140 140 C 140 140 140 140 140 180 C 140 180 180 180 180 200 "/>
<path style=" stroke:none;fill-rule:evenodd;fill:rgb(86.274511%,54.11765%,86.666667%);fill-opacity:1;" d="M 200 200 C 200 200 220 200 220 160 C 220 160 200 160 200 180 Z M 200 200 "/>
<path style="fill:none;stroke-width:5;stroke-linecap:round;stroke-linejoin:round;stroke:rgb(86.274511%,54.11765%,86.666667%);stroke-opacity:1;stroke-miterlimit:10;" d="M 200 200 C 200 200 220 200 220 160 C 220 160 200 160 200 180 "/>
<path style=" stroke:none;fill-rule:evenodd;fill:rgb(86.274511%,54.11765%,86.666667%);fill-opacity:1;" d="M 180 100 C 180 100 180 120 220 120 Z M 180 100 "/>
<path style="fill:none;stroke-width:5;stroke-linecap:round;stroke-linejoin:round;stroke:rgb(86.274511%,54.11765%,86.666667%);stroke-opacity:1;stroke-miterlimit:10;" d="M 180 100 C 180 100 180 120 220 120 "/>
<path style=" stroke:none;fill-rule:evenodd;fill:rgb(86.274511%,54.11765%,86.666667%);fill-opacity:1;" d="M 120 120 C 120 120 120 100 140 100 Z M 120 120 "/>
<path style="fill:none;stroke-width:5;stroke-linecap:round;stroke-linejoin:round;stroke:rgb(86.274511%,54.11765%,86.666667%);stroke-opacity:1;stroke-miterlimit:10;" d="M 120 120 C 120 120 120 100 140 100 "/>
</g>
</svg>
